#!OML:ASF H:\charlestonDancing\Project 1\Capture day 1\Session 1\femaleDancer.ASF
:FULLY-SPECIFIED
:DEGREES
529
root -2.09393 17.9689 5.60531 903.095 -68.7318 -897.196
lowerback 15.3343 -2.32842 1.1363
upperback 4.20564 -3.25761 -1.91787
thorax -4.29531 -1.72395 -2.03964
lowerneck 13.3758 2.99126 5.32561
upperneck -23.7966 4.2684 -3.16053
head -9.51876 1.66914 -2.46799
rclavicle 2.78299e-014 2.70347e-014
rhumerus -40.5044 -18.0814 -56.0697
rradius 86.2836
rwrist -39.8577
rhand -7.05451 -33.0208
rfingers 7.12502
rthumb 18.8184 -62.1306
lclavicle 2.78299e-014 2.70347e-014
lhumerus -16.6023 -16.4418 80.0627
lradius 65.3504
lwrist 1.85402
lhand -29.0937 12.2765
lfingers 7.12502
lthumb -2.44224 42.2423
rfemur -22.3288 11.9671 19.7177
rtibia 28.9673
rfoot -18.318 13.4732
rtoes -20.3155
lfemur -20.1411 8.0859 -21.0854
ltibia 31.2473
lfoot -17.7221 -2.04281
ltoes -21.1512
530
root -2.15473 17.9793 5.59596 902.905 -68.5236 -897.003
lowerback 14.8022 -2.40034 1.07725
upperback 3.84809 -3.32827 -1.76254
thorax -4.3769 -1.74845 -1.84243
lowerneck 13.4094 2.12905 4.55163
upperneck -24.3312 3.17356 -1.73882
head -9.81805 1.03241 -1.7269
rclavicle 3.97569e-016 5.56597e-015
rhumerus -40.3793 -17.4753 -56.2191
rradius 85.9025
rwrist -39.479
rhand -7.35409 -33.253
rfingers 7.12502
rthumb 18.5302 -62.3904
lclavicle 3.97569e-016 5.56597e-015
lhumerus -18.1415 -15.7897 81.5662
lradius 64.251
lwrist 2.04103
lhand -29.3731 11.6583
lfingers 7.12502
lthumb -2.712 41.6208
rfemur -21.9032 11.9297 19.8112
rtibia 28.5566
rfoot -18.4272 13.8309
rtoes -20.229
lfemur -19.6916 8.15902 -20.9649
ltibia 30.9468
lfoot -18.1303 -2.48373
ltoes -20.7172
531
root -2.21118 17.9895 5.58519 902.587 -68.4937 -896.69
lowerback 14.3292 -2.55383 0.999099
upperback 3.50698 -3.50713 -1.53573
thorax -4.46942 -1.82613 -1.53896
lowerneck 13.0824 1.29328 3.73778
upperneck -24.5365 2.09358 -0.309603
head -9.90231 0.41795 -0.955962
rclavicle 2.90226e-014 9.54166e-015
rhumerus -40.2138 -16.8157 -56.3002
rradius 85.4944
rwrist -38.7926
rhand -7.47031 -33.6034
rfingers 7.12502
rthumb 18.4184 -62.7515
lclavicle 2.90226e-014 9.54166e-015
lhumerus -19.83 -14.8629 83.0982
lradius 63.0135
lwrist 2.26126
lhand -29.5528 11.1553
lfingers 7.12502
lthumb -2.88555 41.1156
rfemur -21.4459 11.8223 19.9533
rtibia 28.1269
rfoot -18.481 14.041
rtoes -20.5575
lfemur -19.344 8.14892 -20.812
ltibia 30.7649
lfoot -18.2682 -2.76904
ltoes -20.3514
532
root -2.26757 17.9997 5.5727 902.03 -68.6207 -896.145
lowerback 13.9271 -2.74409 0.977872
upperback 3.1643 -3.72408 -1.24317
thorax -4.59899 -1.92288 -1.19066
lowerneck 11.9525 0.435977 3.19333
upperneck -23.9149 0.95336 0.847476
head -9.50531 -0.187618 -0.316515
rclavicle -7.15625e-014 1.59028e-015
rhumerus -40.0592 -16.2461 -56.2602
rradius 84.9624
rwrist -38.1315
rhand -7.1905 -33.5881
rfingers 7.12502
rthumb 18.6876 -62.7104
lclavicle -7.15625e-014 1.59028e-015
lhumerus -21.6351 -13.6834 84.6462
lradius 61.8089
lwrist 1.92998
lhand -28.8157 11.8012
lfingers 7.12502
lthumb -2.17371 41.7699
rfemur -20.9033 11.5227 20.1987
rtibia 27.6533
rfoot -18.4837 14.3583
rtoes -20.3198
lfemur -19.0624 8.078 -20.5938
ltibia 30.7118
lfoot -18.1819 -2.79593
ltoes -20.2402
533
root -2.32607 18.0068 5.55905 900.56 -68.6198 -894.591
lowerback 13.5557 -2.91775 1.25203
upperback 2.79295 -3.87075 -0.817417
thorax -4.77973 -1.98775 -0.880522
lowerneck 10.9473 -0.40121 2.92949
upperneck -23.3754 -0.170487 1.64849
head -9.14189 -0.772017 0.128553
rclavicle -3.45885e-014 -1.74931e-014
rhumerus -39.8266 -15.7127 -56.1834
rradius 84.3322
rwrist -37.7168
rhand -6.88454 -33.3628
rfingers 7.12502
rthumb 18.9819 -62.4566
lclavicle -3.45885e-014 -1.74931e-014
lhumerus -23.4791 -12.2592 86.147
lradius 60.378
lwrist 1.31172
lhand -27.254 11.6806
lfingers 7.12502
lthumb -0.665418 41.6593
rfemur -20.3958 11.1923 20.8663
rtibia 27.1699
rfoot -18.4209 14.869
rtoes -19.6877
lfemur -18.8571 7.92597 -19.9741
ltibia 30.7253
lfoot -17.971 -2.42211
ltoes -19.9237
534
root -2.38386 18.0109 5.54768 899.009 -68.5965 -892.934
lowerback 13.1273 -3.05421 1.70574
upperback 2.47557 -3.95268 -0.417402
thorax -4.88282 -2.0259 -0.714741
lowerneck 10.2409 -1.19171 2.71443
upperneck -23.1716 -1.23579 2.31937
head -8.94065 -1.32945 0.503626
rclavicle 2.88238e-014 -1.51076e-014
rhumerus -39.6867 -15.3111 -56.0178
rradius 83.848
rwrist -37.5886
rhand -6.78029 -33.3364
rfingers 7.12502
rthumb 19.0821 -62.4204
lclavicle 2.88238e-014 -1.51076e-014
lhumerus -25.0952 -10.7596 87.4932
lradius 58.5098
lwrist 0.17054
lhand -25.3822 10.6606
lfingers 7.12502
lthumb 1.14243 40.6373
rfemur -19.9186 10.7395 21.5858
rtibia 26.6593
rfoot -18.1957 15.5373
rtoes -18.7604
lfemur -18.7249 7.59604 -19.3217
ltibia 30.8088
lfoot -17.6657 -1.79143
ltoes -19.209
